<svg width="25" height="24" viewBox="0 0 25 24" fill="none" xmlns="http://www.w3.org/2000/svg">
<path d="M22.0575 16.2456C21.593 15.5704 21.8523 14.5945 21.7367 13.517C21.6177 11.7591 20.8624 10.0559 19.3972 8.69366L14.4067 4.05344C14.4067 4.05344 13.4234 3.13836 12.5077 4.12229C11.5933 5.10554 12.5772 6.02062 12.5772 6.02062L14.6854 7.98179L16.5129 9.68093C16.5129 9.68093 16.055 10.1729 14.0324 8.29194L7.20104 1.93786C7.20104 1.93786 6.21645 1.02345 5.30137 2.00738C4.38696 2.99064 5.37022 3.90572 5.37022 3.90572L11.8299 9.91421C11.8159 9.90084 11.3413 10.3768 11.3326 10.3687L4.42105 3.94047C4.42105 3.94047 3.43712 3.0254 2.52205 4.00932C1.60697 4.99325 2.59089 5.90766 2.59089 5.90766L9.50311 12.3373C9.51113 12.3453 9.06595 12.8479 9.07932 12.8606L3.11695 7.31403C3.11695 7.31403 2.13302 6.39895 1.21794 7.38288C0.302866 8.3668 1.28679 9.28188 1.28679 9.28188L7.62616 15.1774C7.68431 15.2316 7.29195 15.7843 7.36481 15.8519L2.79677 11.6033C2.79677 11.6033 1.81284 10.6883 0.897767 11.6728C-0.0173106 12.6568 0.966615 13.5718 0.966615 13.5718L8.41758 20.4988C9.66152 21.6558 10.9389 22.2414 12.4789 22.4559C12.7924 22.4994 13.1935 22.4994 13.3579 22.5201C13.8773 22.5856 14.3332 22.7701 14.9434 23.1444C15.7288 23.6257 16.9073 23.8262 17.5844 23.1023L19.8931 20.6324L22.0248 18.3518C22.7012 17.6285 22.5802 17.0042 22.0575 16.2456V16.2456Z" fill="#EF9645"/>
<path d="M1.77345 23.3837C1.60233 23.3837 1.43122 23.3182 1.30087 23.1879C1.03952 22.9265 1.03952 22.5041 1.30087 22.2427L3.67446 19.8705C3.93581 19.6091 4.35826 19.6091 4.61962 19.8705C4.88097 20.1318 4.88097 20.5543 4.61962 20.8156L2.24603 23.1885C2.11569 23.3189 1.94457 23.3837 1.77345 23.3837V23.3837ZM6.28266 24C6.20981 24 6.13494 23.988 6.06142 23.9626C5.71316 23.8409 5.52935 23.4599 5.65167 23.111L6.30071 21.2574C6.42237 20.9092 6.80404 20.726 7.15229 20.847C7.50054 20.9693 7.68436 21.3504 7.56204 21.6986L6.91299 23.5522C6.81674 23.8275 6.55873 24 6.28266 24V24ZM1.15783 18.8752C0.882437 18.8752 0.624424 18.7034 0.527502 18.4293C0.404511 18.0811 0.586992 17.6994 0.935243 17.5764L2.60297 16.9875C2.95256 16.8672 3.33289 17.0484 3.45588 17.3953C3.57887 17.7435 3.39639 18.1252 3.04814 18.2482L1.38042 18.8371C1.30622 18.8631 1.23136 18.8752 1.15783 18.8752V18.8752ZM20.8497 4.3255C20.6786 4.3255 20.5075 4.25999 20.3771 4.12965C20.1158 3.86829 20.1158 3.44518 20.3771 3.18382L22.7514 0.810906C23.0127 0.550219 23.4352 0.550219 23.6965 0.810906C23.9579 1.07159 23.9579 1.49538 23.6965 1.75673L21.3223 4.12965C21.1919 4.26066 21.0208 4.3255 20.8497 4.3255V4.3255ZM18.0664 3.19118C17.9935 3.19118 17.9187 3.17848 17.8458 3.15308C17.4975 3.03142 17.3137 2.65042 17.4354 2.3015L18.0838 0.447949C18.2061 0.0996984 18.5864 -0.0841191 18.9353 0.0375347C19.2836 0.159189 19.4674 0.540192 19.3457 0.889112L18.6974 2.74266C18.6011 3.01872 18.3424 3.19118 18.0664 3.19118V3.19118ZM22.1725 7.05068C21.8971 7.05068 21.6391 6.87889 21.5422 6.60484C21.4192 6.25659 21.6024 5.87491 21.9499 5.75192L23.617 5.16304C23.9659 5.03938 24.3469 5.2232 24.4699 5.57078C24.5929 5.91903 24.4098 6.3007 24.0622 6.42369L22.3951 7.01258C22.3209 7.03865 22.2461 7.05068 22.1725 7.05068V7.05068Z" fill="#FA743E"/>
<path d="M24.1217 15.8946C23.6799 15.2048 23.972 14.2376 23.8931 13.1568C23.833 11.3961 23.1358 9.66823 21.7174 8.25718L16.886 3.45185C16.886 3.45185 15.9342 2.50469 14.9857 3.4572C14.0385 4.40904 14.991 5.35687 14.991 5.35687L17.0324 7.38823L18.801 9.14753C18.801 9.14753 18.3265 9.62345 16.3686 7.67565C14.4095 5.72718 9.75521 1.09498 9.75521 1.09498C9.75521 1.09498 8.8027 0.147817 7.85487 1.10033C6.90704 2.05217 7.85955 2.99933 7.85955 2.99933L14.1134 9.22239C14.1 9.20902 13.6094 9.66823 13.6007 9.65954L6.90971 3.002C6.90971 3.002 5.9572 2.05417 5.00937 3.00668C4.06221 3.95919 5.01405 4.90635 5.01405 4.90635L11.7057 11.5652C11.7137 11.5733 11.2512 12.0605 11.2645 12.0739L5.49265 6.3301C5.49265 6.3301 4.54014 5.38294 3.59231 6.33545C2.64447 7.28796 3.59698 8.23579 3.59698 8.23579L9.73382 14.3419C9.78997 14.3974 9.37955 14.9374 9.44974 15.0076L5.02742 10.6074C5.02742 10.6074 4.07491 9.66021 3.12708 10.6127C2.17925 11.5652 3.13176 12.5131 3.13176 12.5131L10.3441 19.6866C11.5486 20.8851 12.8052 21.5128 14.3373 21.7795C14.6494 21.8336 15.0505 21.847 15.2136 21.8731C15.7303 21.9559 16.1795 22.1558 16.7777 22.5508C17.5464 23.0582 18.7175 23.2981 19.4187 22.5976L21.8096 20.2073L24.0168 18.0002C24.718 17.2983 24.6184 16.67 24.1217 15.8946V15.8946Z" fill="#FFDB5E"/>
</svg>
