<svg width="64" height="64" viewBox="0 0 64 64" fill="none" xmlns="http://www.w3.org/2000/svg">
<path d="M42.6667 34.6667V56" stroke="#3F4750" stroke-width="4" stroke-linecap="round" stroke-linejoin="round"/>
<path d="M21.3334 34.6667V56" stroke="#3F4750" stroke-width="4" stroke-linecap="round" stroke-linejoin="round"/>
<path d="M32 40V61.3333" stroke="#3F4750" stroke-width="4" stroke-linecap="round" stroke-linejoin="round"/>
<path d="M53.3333 44.2134C56.1366 42.9856 58.4322 40.8308 59.8348 38.1108C61.2374 35.3907 61.6616 32.271 61.0362 29.2752C60.4107 26.2794 58.7738 23.5899 56.4 21.6582C54.0263 19.7266 51.0603 18.6703 47.9999 18.6667H44.6399C43.7946 15.3934 42.1835 12.3679 39.9394 9.83949C37.6953 7.31109 34.8824 5.35222 31.7326 4.12434C28.5828 2.89646 25.1863 2.43473 21.8231 2.7772C18.4598 3.11967 15.2261 4.25654 12.3884 6.09411C9.5508 7.93167 7.19049 10.4173 5.50207 13.3461C3.81365 16.275 2.84545 19.5631 2.67729 22.9396C2.50913 26.3161 3.14581 29.6842 4.53487 32.7663C5.92393 35.8484 8.02558 38.5563 10.6666 40.6667" stroke="#3F4750" stroke-width="4" stroke-linecap="round" stroke-linejoin="round"/>
</svg>
