<svg width="12" height="13" viewBox="0 0 12 13" fill="none" xmlns="http://www.w3.org/2000/svg">
<g clip-path="url(#clip0_77_2427)">
<path d="M5.99994 1.845L8.82994 4.675C9.38962 5.23431 9.77084 5.94703 9.92539 6.72303C10.0799 7.49902 10.0009 8.30343 9.69821 9.03448C9.39554 9.76554 8.88285 10.3904 8.225 10.8301C7.56714 11.2697 6.79368 11.5044 6.00244 11.5044C5.21121 11.5044 4.43774 11.2697 3.77989 10.8301C3.12204 10.3904 2.60935 9.76554 2.30667 9.03448C2.004 8.30343 1.92494 7.49902 2.07949 6.72303C2.23405 5.94703 2.61527 5.23431 3.17494 4.675L5.99994 1.845Z" stroke="#3F4750" stroke-linecap="round" stroke-linejoin="round"/>
</g>
<defs>
<clipPath id="clip0_77_2427">
<rect width="12" height="12" fill="white" transform="translate(0 0.5)"/>
</clipPath>
</defs>
</svg>
