<svg width="24" height="25" viewBox="0 0 24 25" fill="none" xmlns="http://www.w3.org/2000/svg">
<path d="M17 2.5H7C4.23858 2.5 2 4.73858 2 7.5V17.5C2 20.2614 4.23858 22.5 7 22.5H17C19.7614 22.5 22 20.2614 22 17.5V7.5C22 4.73858 19.7614 2.5 17 2.5Z" stroke="black" stroke-width="2" stroke-linecap="round" stroke-linejoin="round"/>
<path d="M16 11.8701C16.1234 12.7023 15.9812 13.5523 15.5937 14.2991C15.2062 15.0459 14.5931 15.6515 13.8416 16.0297C13.0901 16.408 12.2384 16.5397 11.4077 16.406C10.5771 16.2723 9.80971 15.8801 9.21479 15.2852C8.61987 14.6903 8.22768 13.9229 8.09402 13.0923C7.96035 12.2616 8.09202 11.41 8.47028 10.6584C8.84854 9.90691 9.45414 9.2938 10.2009 8.9063C10.9477 8.5188 11.7977 8.37665 12.63 8.50006C13.4789 8.62594 14.2648 9.02152 14.8716 9.62836C15.4785 10.2352 15.8741 11.0211 16 11.8701Z" stroke="black" stroke-width="2" stroke-linecap="round" stroke-linejoin="round"/>
<path d="M17.5 7H17.51" stroke="black" stroke-width="2" stroke-linecap="round" stroke-linejoin="round"/>
</svg>
