<svg width="22" height="24" viewBox="0 0 22 24" fill="none" xmlns="http://www.w3.org/2000/svg">
<path d="M21.4892 11.8627C21.4892 11.5252 21.4087 11.2084 21.2737 10.9204C20.3737 8.017 16.1602 8.22909 10.1667 8.08748C9.16469 8.06398 9.73786 6.88073 10.0895 4.28334C10.3184 2.59403 9.22912 0 7.39819 0C4.37932 0 7.28343 2.38127 4.61422 8.27003C3.18801 11.4164 0 9.65396 0 12.8145V20.0086C0 21.2389 0.120809 22.4214 1.85106 22.6161C3.52829 22.8047 3.1511 24 5.57063 24H17.681C18.9146 24 19.918 22.9959 19.918 21.7624C19.918 21.2509 19.7388 20.7851 19.4495 20.408C20.1341 20.0247 20.6039 19.3012 20.6039 18.4623C20.6039 17.9522 20.4254 17.4864 20.1368 17.1099C20.8234 16.7273 21.2946 16.0031 21.2946 15.1628C21.2946 14.5528 21.0476 13.9997 20.6496 13.595C21.1576 13.1849 21.4892 12.5648 21.4892 11.8627V11.8627Z" fill="#FFDB5E"/>
<path d="M13.4783 14.0997H19.2529C20.0382 14.0997 20.7751 13.6796 21.1765 13.0037C21.3416 12.7252 21.2496 12.3648 20.9704 12.199C20.6919 12.0332 20.3315 12.1265 20.1657 12.4051C19.9758 12.7266 19.6247 12.9252 19.2522 12.9252H13.3393C12.7534 12.9252 12.2769 12.4487 12.2769 11.8628C12.2769 11.2768 12.7534 10.8003 13.3393 10.8003H17.2904C17.6146 10.8003 17.8777 10.5372 17.8777 10.2131C17.8777 9.88889 17.6146 9.62579 17.2904 9.62579H13.3387C12.1051 9.62579 11.1017 10.6292 11.1017 11.8628C11.1017 12.5507 11.4205 13.1594 11.9104 13.5702C11.4977 13.9763 11.2406 14.54 11.2406 15.1629C11.2406 15.8528 11.5614 16.4636 12.0541 16.8736C11.644 17.279 11.3896 17.8408 11.3896 18.4623C11.3896 19.214 11.7648 19.8771 12.3353 20.2831C11.9836 20.6785 11.7634 21.1932 11.7634 21.7624C11.7634 22.996 12.7668 23.9994 14.0004 23.9994H17.6811C18.4663 23.9994 19.2039 23.5799 19.6053 22.904C19.7711 22.6255 19.6791 22.2651 19.4006 22.0993C19.1214 21.9349 18.761 22.0255 18.5959 22.304C18.4046 22.6255 18.0536 22.8248 17.6811 22.8248H14.0004C13.4145 22.8248 12.938 22.3483 12.938 21.7624C12.938 21.1765 13.4145 20.6999 14.0004 20.6999H18.367C19.1522 20.6999 19.8905 20.2798 20.2912 19.6039C20.457 19.3247 20.365 18.9643 20.0865 18.7992C19.8053 18.6307 19.4462 18.7254 19.2818 19.0039C19.0878 19.3308 18.7455 19.5254 18.367 19.5254H13.6266C13.0407 19.5254 12.5641 19.0482 12.5641 18.4623C12.5641 17.8764 13.0407 17.3998 13.6266 17.3998H19.0569C19.8422 17.3998 20.5798 16.9804 20.9812 16.3045C21.1469 16.026 21.055 15.6656 20.7765 15.4998C20.4966 15.3347 20.1368 15.426 19.9717 15.7045C19.7778 16.0307 19.4355 16.2253 19.0569 16.2253H13.4783C12.8923 16.2253 12.4158 15.7488 12.4158 15.1629C12.4158 14.5769 12.8917 14.0997 13.4783 14.0997V14.0997Z" fill="#EE9547"/>
</svg>
