<svg width="13" height="13" viewBox="0 0 13 13" fill="none" xmlns="http://www.w3.org/2000/svg">
<path d="M9.365 4.36499C9.51042 4.21993 9.68936 4.11295 9.88597 4.0535C10.0826 3.99405 10.2908 3.98396 10.4922 4.02413C10.6937 4.06431 10.8821 4.1535 11.0409 4.28383C11.1996 4.41415 11.3238 4.58159 11.4025 4.77134C11.4811 4.96108 11.5118 5.16729 11.4918 5.37171C11.4718 5.57614 11.4018 5.77249 11.2878 5.94339C11.1739 6.11429 11.0196 6.25448 10.8386 6.35156C10.6575 6.44865 10.4554 6.49962 10.25 6.49999H1.5M5.295 2.79499C5.41115 2.67815 5.55438 2.59181 5.71194 2.54366C5.8695 2.49551 6.03651 2.48703 6.19814 2.51899C6.35976 2.55094 6.51099 2.62233 6.63838 2.72681C6.76576 2.8313 6.86536 2.96564 6.92831 3.11789C6.99127 3.27014 7.01563 3.43559 6.99923 3.59952C6.98284 3.76346 6.92619 3.9208 6.83433 4.05757C6.74247 4.19434 6.61823 4.30629 6.47268 4.38347C6.32712 4.46066 6.16475 4.50068 6 4.49999H1.5L5.295 2.79499ZM6.795 10.205C6.91115 10.3218 7.05438 10.4082 7.21194 10.4563C7.3695 10.5045 7.53651 10.5129 7.69814 10.481C7.85976 10.449 8.01099 10.3777 8.13838 10.2732C8.26576 10.1687 8.36536 10.0343 8.42831 9.8821C8.49127 9.72984 8.51563 9.5644 8.49923 9.40046C8.48284 9.23652 8.42619 9.07918 8.33433 8.94241C8.24247 8.80564 8.11823 8.69369 7.97268 8.61651C7.82712 8.53932 7.66475 8.4993 7.5 8.49999H1.5L6.795 10.205Z" stroke="#3F4750" stroke-linecap="round" stroke-linejoin="round"/>
</svg>
