<svg width="25" height="24" viewBox="0 0 25 24" fill="none" xmlns="http://www.w3.org/2000/svg">
<path d="M12.5184 0C5.89177 0 0.518433 5.37333 0.518433 12C0.518433 16.034 2.51577 19.5947 5.56777 21.77C5.6371 17.478 4.07643 12.6667 1.45443 12.6667C1.1451 12.6667 0.894433 12.7107 0.685766 12.7887C0.887766 12.284 1.32577 12 2.1451 12C4.99177 12 6.5891 17.6707 6.20643 22.192C8.04243 23.3313 10.1998 24 12.5184 24C14.8378 24 16.9958 23.3307 18.8318 22.1913C18.4471 17.6533 20.0438 12 22.8924 12C23.7144 12 24.1538 12.284 24.3538 12.7887C24.1444 12.7107 23.8931 12.6667 23.5824 12.6667C20.9571 12.6667 19.3971 17.466 19.4691 21.77C22.5218 19.5947 24.5184 16.034 24.5184 12C24.5184 5.37333 19.1458 0 12.5184 0Z" fill="#FFCC4D"/>
<path d="M12.5184 0C5.89177 0 0.518433 5.37333 0.518433 12C0.518433 12.7947 0.600433 13.5707 0.747766 14.3227C0.903766 13.7473 1.14777 13.1953 1.4531 12.6667C1.14443 12.6667 0.894433 12.7107 0.686433 12.7887C0.862433 12.3493 1.23443 12.09 1.8651 12.0273C3.85977 9.24133 7.87643 7.33333 12.5184 7.33333C17.1611 7.33333 21.1771 9.24067 23.1718 12.0267C23.8051 12.0893 24.1784 12.348 24.3531 12.7887C24.1451 12.7107 23.8938 12.6667 23.5844 12.6667C23.8898 13.1953 24.1331 13.7473 24.2898 14.3227C24.4371 13.5707 24.5184 12.7947 24.5184 12C24.5184 5.37333 19.1458 0 12.5184 0V0Z" fill="#BDDDF4"/>
<path d="M5.41646 7.94001C4.78579 10.0573 5.48779 12.1353 6.98513 12.5813C8.48246 13.028 10.2078 11.6733 10.8378 9.55601C11.4685 7.43935 10.7671 5.36068 9.27046 4.91468C7.77313 4.46868 6.04779 5.82335 5.41646 7.94001ZM19.6198 7.94001C20.2505 10.0573 19.5485 12.1353 18.0518 12.5813C16.5545 13.028 14.8291 11.6733 14.1991 9.55601C13.5685 7.43935 14.2705 5.36068 15.7665 4.91468C17.2631 4.46868 18.9885 5.82335 19.6198 7.94001Z" fill="#F5F8FA"/>
<path d="M12.5184 12C10.6804 12 9.18506 13.4953 9.18506 15.3333V19.3333C9.18506 21.1713 10.6804 22.6667 12.5184 22.6667C14.3564 22.6667 15.8517 21.1713 15.8517 19.3333V15.3333C15.8517 13.4953 14.3564 12 12.5184 12Z" fill="#664500"/>
<path d="M1.45442 12.6667C1.14508 12.6667 0.894417 12.7107 0.685751 12.7887C0.733751 12.6693 0.797084 12.5647 0.873084 12.4713C-0.368249 13.9987 2.41775 19.0267 1.06375 24H5.37042C6.16375 19.36 4.54708 12.6667 1.45442 12.6667ZM24.3538 12.7887C24.1444 12.7107 23.8931 12.6667 23.5824 12.6667C20.4884 12.6667 18.8724 19.3347 19.6671 24H23.9738C22.7031 19.3033 25.0778 14.6073 24.3538 12.7887Z" fill="#FCAB40"/>
</svg>
