<svg width="24" height="25" viewBox="0 0 24 25" fill="none" xmlns="http://www.w3.org/2000/svg">
<path d="M22.5401 6.92C22.4213 6.44541 22.1794 6.01057 21.8387 5.65941C21.4981 5.30824 21.0708 5.05318 20.6001 4.92C18.8801 4.5 12.0001 4.5 12.0001 4.5C12.0001 4.5 5.12008 4.5 3.40008 4.96C2.92933 5.09318 2.50206 5.34824 2.16143 5.69941C1.8208 6.05057 1.57887 6.48541 1.46008 6.96C1.1453 8.70556 0.991319 10.4763 1.00008 12.25C0.988863 14.037 1.14285 15.8213 1.46008 17.58C1.59104 18.0398 1.83839 18.4581 2.17823 18.7945C2.51806 19.1308 2.9389 19.3738 3.40008 19.5C5.12008 19.96 12.0001 19.96 12.0001 19.96C12.0001 19.96 18.8801 19.96 20.6001 19.5C21.0708 19.3668 21.4981 19.1118 21.8387 18.7606C22.1794 18.4094 22.4213 17.9746 22.5401 17.5C22.8524 15.7676 23.0064 14.0103 23.0001 12.25C23.0113 10.463 22.8573 8.6787 22.5401 6.92V6.92Z" stroke="black" stroke-width="2" stroke-linecap="round" stroke-linejoin="round"/>
<path d="M9.75 15.52L15.5 12.25L9.75 8.97998V15.52Z" stroke="black" stroke-width="2" stroke-linecap="round" stroke-linejoin="round"/>
</svg>
